# xmcd CD database file
#
# Track frame offsets:
#	150
#	13311
#	29680
#	44631
#	56650
#	67270
#	89254
#	102612
#	117722
#	139094
#	158742
#	178678
#	192289
#	205446
#	223760
#	239750
#	250443
#	263717
#	277697
#	291470
#
# Disc length: 4066 seconds
#
# Revision: 0
# Processed by: cddbd v1.4PL0 Copyright (c) Steve Scherf et al.
# Submitted via: CDex 1.51
#
DISCID=4f0fe014
DTITLE=Art Tatum - Masters of Jazz - Art Tatum [CD 2)
DYEAR=1999
DGENRE=Jazz
TTITLE0=Wee baby blues
TTITLE1=Toledo blues
TTITLE2=Esquire blues
TTITLE3=I'm gonna sit right down
TTITLE4=I got rhythm
TTITLE5=Mop Mop
TTITLE6=Esquire bounce
TTITLE7=Stompin' at the Savoy
TTITLE8=Dark eyes
TTITLE9=I know that you know
TTITLE10=Ain't misbehavin'
TTITLE11=Sweet and lovely
TTITLE12=Danny boy
TTITLE13=Lover
TTITLE14=Begin the Beguine
TTITLE15=Song of the vagabond
TTITLE16=Out of nowhere
TTITLE17=Cherokee
TTITLE18=Tenderly
TTITLE19=You took advantage of me
EXTD=YEAR: 1999
EXTT0=
EXTT1=
EXTT2=
EXTT3=
EXTT4=
EXTT5=
EXTT6=
EXTT7=
EXTT8=
EXTT9=
EXTT10=
EXTT11=
EXTT12=
EXTT13=
EXTT14=
EXTT15=
EXTT16=
EXTT17=
EXTT18=
EXTT19=
PLAYORDER=
